<mxfile host="app.diagrams.net" modified="2021-02-13T06:41:41.139Z" agent="5.0 (Windows NT 10.0; Win64; x64) AppleWebKit/537.36 (KHTML, like Gecko) Chrome/88.0.4324.150 Safari/537.36" etag="BNOgxPZQLqmyEnRa-0tJ" version="14.3.0" type="github">
  <diagram id="C5RBs43oDa-KdzZeNtuy" name="Page-1">
    <mxGraphModel dx="1422" dy="794" grid="1" gridSize="10" guides="1" tooltips="1" connect="1" arrows="1" fold="1" page="1" pageScale="1" pageWidth="1169" pageHeight="1400" math="0" shadow="0">
      <root>
        <mxCell id="WIyWlLk6GJQsqaUBKTNV-0" />
        <mxCell id="WIyWlLk6GJQsqaUBKTNV-1" parent="WIyWlLk6GJQsqaUBKTNV-0" />
        <mxCell id="clJLgRFP-r27euhU7ZNn-52" value="" style="rounded=1;whiteSpace=wrap;html=1;fontSize=20;" parent="WIyWlLk6GJQsqaUBKTNV-1" vertex="1">
          <mxGeometry x="80" y="40" width="120" height="60" as="geometry" />
        </mxCell>
        <mxCell id="clJLgRFP-r27euhU7ZNn-53" value="" style="rounded=1;whiteSpace=wrap;html=1;fontSize=20;" parent="WIyWlLk6GJQsqaUBKTNV-1" vertex="1">
          <mxGeometry x="520" y="40" width="120" height="60" as="geometry" />
        </mxCell>
        <mxCell id="clJLgRFP-r27euhU7ZNn-55" value="" style="rounded=1;whiteSpace=wrap;html=1;fontSize=20;" parent="WIyWlLk6GJQsqaUBKTNV-1" vertex="1">
          <mxGeometry x="960" y="40" width="120" height="60" as="geometry" />
        </mxCell>
        <mxCell id="clJLgRFP-r27euhU7ZNn-48" value="&lt;span style=&quot;font-size: 18px;&quot;&gt;顧客&lt;/span&gt;" style="text;html=1;strokeColor=none;fillColor=none;align=center;verticalAlign=middle;whiteSpace=wrap;rounded=0;fontSize=18;" parent="WIyWlLk6GJQsqaUBKTNV-1" vertex="1">
          <mxGeometry x="100" y="50" width="80" height="40" as="geometry" />
        </mxCell>
        <mxCell id="clJLgRFP-r27euhU7ZNn-49" value="&lt;span style=&quot;font-size: 18px;&quot;&gt;制作部門&lt;/span&gt;" style="text;html=1;strokeColor=none;fillColor=none;align=center;verticalAlign=middle;whiteSpace=wrap;rounded=0;fontSize=18;" parent="WIyWlLk6GJQsqaUBKTNV-1" vertex="1">
          <mxGeometry x="945" y="70" width="150" as="geometry" />
        </mxCell>
        <mxCell id="clJLgRFP-r27euhU7ZNn-51" value="&lt;span style=&quot;font-size: 18px;&quot;&gt;営業部門&lt;br style=&quot;font-size: 18px;&quot;&gt;&lt;/span&gt;" style="text;html=1;strokeColor=none;fillColor=none;align=center;verticalAlign=middle;whiteSpace=wrap;rounded=0;fontSize=18;" parent="WIyWlLk6GJQsqaUBKTNV-1" vertex="1">
          <mxGeometry x="505" y="50" width="150" height="40" as="geometry" />
        </mxCell>
        <mxCell id="clJLgRFP-r27euhU7ZNn-58" value="&lt;font style=&quot;font-size: 12px;&quot;&gt;DMでのやり取り&lt;/font&gt;" style="ellipse;whiteSpace=wrap;html=1;fontSize=12;" parent="WIyWlLk6GJQsqaUBKTNV-1" vertex="1">
          <mxGeometry x="80" y="160" width="120" height="80" as="geometry" />
        </mxCell>
        <mxCell id="clJLgRFP-r27euhU7ZNn-60" value="&lt;font style=&quot;font-size: 12px&quot;&gt;営業メール送信&lt;/font&gt;" style="ellipse;whiteSpace=wrap;html=1;fontSize=18;" parent="WIyWlLk6GJQsqaUBKTNV-1" vertex="1">
          <mxGeometry x="520" y="140" width="120" height="80" as="geometry" />
        </mxCell>
        <mxCell id="clJLgRFP-r27euhU7ZNn-61" value="プロフィールカーLP&lt;br&gt;訪問" style="ellipse;whiteSpace=wrap;html=1;fontSize=12;" parent="WIyWlLk6GJQsqaUBKTNV-1" vertex="1">
          <mxGeometry x="80" y="240" width="120" height="80" as="geometry" />
        </mxCell>
        <mxCell id="clJLgRFP-r27euhU7ZNn-62" value="テンプレート選択" style="ellipse;whiteSpace=wrap;html=1;fontSize=12;" parent="WIyWlLk6GJQsqaUBKTNV-1" vertex="1">
          <mxGeometry x="80" y="320" width="120" height="80" as="geometry" />
        </mxCell>
        <mxCell id="clJLgRFP-r27euhU7ZNn-66" value="&lt;span style=&quot;font-size: 12px&quot;&gt;納品案内画面に遷移&lt;br&gt;&lt;/span&gt;" style="ellipse;whiteSpace=wrap;html=1;fontSize=18;" parent="WIyWlLk6GJQsqaUBKTNV-1" vertex="1">
          <mxGeometry x="80" y="640" width="120" height="80" as="geometry" />
        </mxCell>
        <mxCell id="clJLgRFP-r27euhU7ZNn-89" value="ビルド" style="ellipse;whiteSpace=wrap;html=1;fontSize=12;" parent="WIyWlLk6GJQsqaUBKTNV-1" vertex="1">
          <mxGeometry x="960" y="940" width="120" height="80" as="geometry" />
        </mxCell>
        <mxCell id="clJLgRFP-r27euhU7ZNn-90" value="デプロイ" style="ellipse;whiteSpace=wrap;html=1;fontSize=12;" parent="WIyWlLk6GJQsqaUBKTNV-1" vertex="1">
          <mxGeometry x="960" y="1020" width="120" height="80" as="geometry" />
        </mxCell>
        <mxCell id="clJLgRFP-r27euhU7ZNn-91" value="チューニング" style="ellipse;whiteSpace=wrap;html=1;fontSize=12;" parent="WIyWlLk6GJQsqaUBKTNV-1" vertex="1">
          <mxGeometry x="960" y="860" width="120" height="80" as="geometry" />
        </mxCell>
        <mxCell id="clJLgRFP-r27euhU7ZNn-92" value="公開通知" style="ellipse;whiteSpace=wrap;html=1;fontSize=12;" parent="WIyWlLk6GJQsqaUBKTNV-1" vertex="1">
          <mxGeometry x="810" y="1080" width="120" height="80" as="geometry" />
        </mxCell>
        <mxCell id="-gDS2UWjlSOq8MK1MXo1-0" value="ログイン&lt;br&gt;会員登録" style="ellipse;whiteSpace=wrap;html=1;fontSize=12;" vertex="1" parent="WIyWlLk6GJQsqaUBKTNV-1">
          <mxGeometry x="80" y="400" width="120" height="80" as="geometry" />
        </mxCell>
        <mxCell id="-gDS2UWjlSOq8MK1MXo1-1" value="編集" style="ellipse;whiteSpace=wrap;html=1;fontSize=12;" vertex="1" parent="WIyWlLk6GJQsqaUBKTNV-1">
          <mxGeometry x="80" y="480" width="120" height="80" as="geometry" />
        </mxCell>
        <mxCell id="-gDS2UWjlSOq8MK1MXo1-3" value="購入ボタン" style="ellipse;whiteSpace=wrap;html=1;fontSize=12;" vertex="1" parent="WIyWlLk6GJQsqaUBKTNV-1">
          <mxGeometry x="80" y="560" width="120" height="80" as="geometry" />
        </mxCell>
        <mxCell id="-gDS2UWjlSOq8MK1MXo1-5" value="データ受取" style="ellipse;whiteSpace=wrap;html=1;fontSize=12;" vertex="1" parent="WIyWlLk6GJQsqaUBKTNV-1">
          <mxGeometry x="960" y="700" width="120" height="80" as="geometry" />
        </mxCell>
        <mxCell id="-gDS2UWjlSOq8MK1MXo1-6" value="制作" style="ellipse;whiteSpace=wrap;html=1;fontSize=12;" vertex="1" parent="WIyWlLk6GJQsqaUBKTNV-1">
          <mxGeometry x="960" y="780" width="120" height="80" as="geometry" />
        </mxCell>
        <mxCell id="-gDS2UWjlSOq8MK1MXo1-7" value="納品メール送信" style="ellipse;whiteSpace=wrap;html=1;fontSize=12;" vertex="1" parent="WIyWlLk6GJQsqaUBKTNV-1">
          <mxGeometry x="520" y="1140" width="120" height="80" as="geometry" />
        </mxCell>
      </root>
    </mxGraphModel>
  </diagram>
</mxfile>
